<svg width="259" height="50" viewBox="0 0 259 50" fill="none" xmlns="http://www.w3.org/2000/svg">
<path d="M36.2741 34.498C36.2741 18.5354 12.7039 22.2714 12.7039 13.9844C12.7039 10.9957 14.8096 9.56921 17.5945 9.63714C20.7191 9.70507 22.8927 11.5391 23.0965 14.5957H35.6628C35.1873 5.49366 28.191 0.331299 17.7983 0.331299C7.81321 0.331299 0.409289 5.35781 0.409289 14.392C0.273438 31.3055 24.1154 26.5507 24.1154 35.381C24.1154 38.166 21.9418 39.8642 18.5455 39.8642C15.2851 39.8642 12.9756 38.0981 12.6359 34.4301H0.273438C0.613067 44.0756 8.62832 49.17 18.8851 49.17C30.025 49.17 36.2741 42.5133 36.2741 34.498Z" fill="#1B295E"/>
<path d="M52.9998 48.6945H67.0605L74.9399 17.3128L82.5476 48.6945H96.6082L109.039 1.01056H96.5403L89.6119 35.7207L81.4608 1.01056H68.6907L60.2 35.7207L53.3395 1.01056H40.909L52.9998 48.6945Z" fill="#1B295E"/>
<path d="M161.801 24.7167C161.801 10.3843 151 0.331299 137.415 0.331299C123.898 0.331299 112.894 10.3843 112.894 24.7167C112.894 39.049 123.898 49.17 137.415 49.17C150.932 49.17 161.801 39.049 161.801 24.7167ZM124.781 24.7167C124.781 16.2259 129.672 10.8598 137.415 10.8598C145.023 10.8598 149.982 16.2259 149.982 24.7167C149.982 33.0716 145.023 38.5736 137.415 38.5736C129.672 38.5736 124.781 33.0716 124.781 24.7167Z" fill="#1B295E"/>
<path d="M215.199 24.7167C215.199 10.3843 204.399 0.331299 190.814 0.331299C177.297 0.331299 166.293 10.3843 166.293 24.7167C166.293 39.049 177.297 49.17 190.814 49.17C204.331 49.17 215.199 39.049 215.199 24.7167ZM178.18 24.7167C178.18 16.2259 183.07 10.8598 190.814 10.8598C198.422 10.8598 203.38 16.2259 203.38 24.7167C203.38 33.0716 198.422 38.5736 190.814 38.5736C183.07 38.5736 178.18 33.0716 178.18 24.7167Z" fill="#1B295E"/>
<path d="M233.277 22.3393V10.3843H239.594C244.213 10.3843 246.183 12.6938 246.183 16.3618C246.183 20.0298 244.213 22.3393 239.594 22.3393H233.277ZM258.002 16.3618C258.002 7.59936 252.16 1.01056 240.477 1.01056H221.661V48.6945H233.277V31.5772H240.477C252.635 31.5772 258.002 24.2412 258.002 16.3618Z" fill="#1B295E"/>
</svg>
